# xmcd CD database file
#
# Track frame offsets:
#	150
#	128829
#	167721
#
# Disc length: 3289 seconds
#
# Revision: 0
# Processed by: cddbd v1.5.2PL0 Copyright (c) Steve Scherf et al.
# Submitted via: CDex 1.70beta2
#
DISCID=1f0cd703
DTITLE=Amalgam - Wipe Out [CD2]
DYEAR=1979
DGENRE=Jazz
TTITLE0=Roller Coaster
TTITLE1=Children
TTITLE2=Homecoming
EXTD=YEAR: 1979
EXTT0=
EXTT1=
EXTT2=
PLAYORDER=
